<?xml version="1.0" encoding="utf-8"?>
<!-- Generator: Adobe Illustrator 22.1.0, SVG Export Plug-In . SVG Version: 6.00 Build 0)  -->
<svg version="1.1" id="Layer_1" xmlns="http://www.w3.org/2000/svg" xmlns:xlink="http://www.w3.org/1999/xlink" x="0px" y="0px"
	 viewBox="0 0 1446 182" style="enable-background:new 0 0 1446 182;" xml:space="preserve">
<style type="text/css">
	.st0{fill:#000111;}
	.st1{fill:#3AB7E8;}
	.st2{fill:#EDA60A;}
	.st3{display:none;}
	.st4{display:inline;}
	.st5{fill:#010101;}
	.st6{fill:#020202;}
	.st7{fill:#050505;}
	.st8{fill:#4E4E4E;}
</style>
<g id="Layer_1_1_">
	<g id="Layer_2_1_">
	</g>
	<g>
		<path class="st0" d="M1031.1,161c-12.5,0-24.5,0-37.4,0c0-27.6,0-54.9,0-82.1c-0.6-0.2-1.3-0.4-1.9-0.6
			c-7.8,12.9-15.7,25.8-23.4,38.7c-7.6,12.6-15.1,25.3-22.6,38c-5.3,9-19.3,9.2-24.6,0.4c-13.8-23.3-27.6-46.5-41.5-69.8
			c-1.5-2.5-3.3-4.8-6.3-9.2c0,29.4,0,56.6,0,84.3c-13.1,0-25.2,0-37.9,0c0-46.2,0-92.5,0-139.7c13.8,0,27.6,0.1,41.4-0.1
			c4.8-0.1,5.8,3.6,7.6,6.6c15,25,30,50,45.1,75c0.9,1.5,2,2.9,4,5.6c6.9-11.5,13.3-22.1,19.7-32.7c9.9-16.5,19.9-33,29.7-49.5
			c1.8-3.1,3.8-5,7.8-5c13.2,0.2,26.4,0.1,40.3,0.1C1031.1,67.8,1031.1,114,1031.1,161z"/>
		<path class="st0" d="M1420.2,161.4c-11.3,0-22.2-0.2-33,0.1c-4.3,0.1-6.4-2.2-8.8-5c-20.1-24-40.2-48-60.4-71.9
			c-2-2.4-3.6-5.5-8.1-7.3c0,28.2,0,55.7,0,83.6c-13,0-25,0-37.6,0c0-46,0-92.2,0-139.8c11.8,0,24-0.4,36.2,0.2
			c4.3,0.2,6.3,5.3,8.9,8.4c21.1,25.1,42.1,50.2,64.6,77.1c0-29.4,0-56.8,0-85c13.2,0,25.4,0,38.2,0
			C1420.2,67.8,1420.2,114,1420.2,161.4z"/>
		<path class="st0" d="M1217.6,160.7c-11.6-33.9-23.4-68.2-36-105.1c-6.7,19.6-12.6,36.9-18.5,54.1c-5.3,15.4-10.6,30.7-15.7,46.1
			c-1.2,3.5-2.2,5.8-6.6,5.6c-10.5-0.3-21-0.1-32.1-0.1c0.6-8.2,4.2-14.8,6.6-21.7c12.9-37.5,25.9-75,38.5-112.6
			c1.5-4.5,3.5-6.2,8.3-6.1c13,0.3,25.9,0.1,38.9,0.1c3.4,0,6.1,0,7.6,4.4c15.4,44.9,31.1,89.7,47,135.4
			C1242.6,160.7,1230.5,160.7,1217.6,160.7z"/>
		<path class="st0" d="M818.4,161.4c-11.3,0-22.4-0.1-33.5,0c-5.4,0.1-5.1-4.5-6.1-7.5c-11-31.8-21.9-63.7-32.7-95.5
			c-3.1,0.7-3,3.4-3.8,5.5c-10.4,30.2-21,60.4-30.9,90.7c-1.8,5.4-4.1,7-9.4,6.8c-9.6-0.4-19.2-0.1-29.5-0.1
			c-0.5-6.3,2.5-11.3,4.2-16.5C690.1,106,703.8,67.2,717,28.2c1.9-5.7,4.4-7.5,10.1-7.3c12.3,0.4,24.7,0.3,37.1,0
			c4.6-0.1,6.9,1.2,8.5,5.8c15,43.8,30.2,87.5,45.3,131.2C818.3,158.8,818.2,159.7,818.4,161.4z"/>
		<path class="st0" d="M174.3,21.4c0,10.6,0,20.2,0,30.7c-18.5,0-36.8,0-55.8,0c0,36.6,0,72.3,0,108.6c-13,0-25.2,0-38.2,0
			c0-35.6,0-71.3,0-107.9c-18.5,0-36.1,0-54.4,0c0-10.9,0-20.9,0-31.4C75.2,21.4,124.5,21.4,174.3,21.4z"/>
		<path class="st0" d="M514.2,21.6c12.5,0,24.6,0,37.6,0c0,18,0,35.4,0,54c37.3,0,73.9,0,110.9,0c0,11,0,20.8,0,31.5
			c-36.8,0-73.4,0-110.7,0c0,18.3,0,35.7,0,53.7c-12.9,0-25.1,0-37.8,0C514.2,114.5,514.2,68.2,514.2,21.6z"/>
		<path class="st0" d="M493.1,24.8c-23.8,22.4-47.7,44.9-72.6,68.3c24.6,23.1,48.6,45.6,74.3,69.7c-17.2,0-32.6,0.1-48-0.2
			c-1.7,0-3.4-2.2-5-3.5c-17.9-15.6-35.9-31.2-53.7-47.1c-3-2.7-6.1-3.4-9.8-3.4c-10.8,0.1-21.6,0-32.9,0c0-10.5,0-20.2,0-31.3
			c10.4,0,20.6-0.2,30.7,0.1c5.4,0.2,9.6-1.3,13.8-5c16.8-15.2,33.9-29.8,50.8-44.9c4.1-3.7,8.3-5.2,13.8-5.1
			c12.6,0.4,25.2,0.1,37.8,0.1C492.5,23.4,492.8,24.1,493.1,24.8z"/>
		<path class="st0" d="M1092,21.6c0,46.7,0,92.7,0,139.2c-12.4,0-24.3,0-36.9,0c0-46.1,0-92.3,0-139.2
			C1066.9,21.6,1079.1,21.6,1092,21.6z"/>
		<path class="st1" d="M195.5,21.4c44.8,0,89.5,0,134.7,0c0,10.1,0,19.9,0,30.4c-44.7,0-89.3,0-134.7,0
			C195.5,41.9,195.5,31.9,195.5,21.4z"/>
		<g>
			<path class="st2" d="M195.5,109.3c0-11.3,0-21.9,0-33.2c41,0,93.5,0,134.7,0c0,18,0,14.8,0,33.2
				C289.5,109.3,236.9,109.3,195.5,109.3z"/>
		</g>
		<path class="st1" d="M195.3,161.5c0-10.2,0-19.7,0-30c45,0,89.7,0,134.9,0c0,9.8,0,19.6,0,30C285.6,161.5,240.9,161.5,195.3,161.5
			z"/>
	</g>
</g>
<g id="Layer_3" class="st3">
	<g class="st4">
		<path d="M1370.5-55.4c-11.9,12.4-24,24.6-35.6,37.2c-4.6,4.9-7.5,5.4-12.5,0.2c-12-12.3-24.7-23.9-37.1-35.7
			c-2.8,1.9-1.7,4.3-1.8,6.2c-0.1,16.5-0.1,33.1,0,49.6c0,5.1-1.1,9.7-7.1,9.5c-5.7-0.1-6.2-4.8-6.2-9.5c0.1-24,0-48,0-71.9
			c0-3.3-0.6-6.9,3.6-8.5c3.9-1.5,6.2,1,8.7,3.4c13.5,13.3,27.2,26.4,40.5,39.8c3.7,3.7,6,4.6,10.2,0.2c13-13.8,26.4-27.1,39.6-40.7
			c2.4-2.5,4.7-5.1,8.5-3.8c4.1,1.4,4.6,5,4.6,8.8c0,24.5,0,48.9,0,73.4c0,4.9-1.3,9-6.9,8.9c-5.1-0.2-6.3-4.2-6.3-8.8
			c0.1-18.9,0-37.9,0-56.8C1372-54.3,1371.3-54.9,1370.5-55.4z"/>
		<path class="st5" d="M1644.6-75.1c6.2-4.2,10.9-2.4,11,4.8c0.3,24.9,0.3,49.9,0,74.8c-0.1,7.9-4.4,9.4-11.7,4.1
			c-27.9-20.3-55.6-40.8-83.4-61.2c-2-1.4-3.8-4.8-6.5-3.1c-2,1.2-0.8,4.4-0.8,6.7c-0.1,17.3-0.1,34.5,0,51.8c0,4.8-0.8,9.1-6.6,9.1
			c-5.5,0-6.8-4-6.7-9c0.1-24.2,0.1-48.4,0-72.6c0-2.9-0.2-6.1,2.7-7.7c3.3-1.9,5.9,0.4,8.4,2.3c29.3,21.5,58.7,43,88,64.5
			c5.3,2,3.3-2.5,3.3-4.2c0.2-15.2,0-30.5,0.2-45.8C1642.6-65.4,1641.1-70.6,1644.6-75.1z"/>
		<path class="st5" d="M1084-38.3c12.9,0,25.9-0.2,38.8,0.1c4.5,0.1,5.7-1.3,5.5-5.7c-0.3-8.6,0-17.2-0.1-25.9
			c-0.1-4.9,1.8-7.8,7-7.9c5.4-0.1,6.2,3.7,6.2,7.8c0.1,24.7,0,49.3,0,74c0,4.5-2,7.9-6.6,7.7c-4.2-0.2-6.7-3-6.6-7.8
			c0.2-7.2-0.3-14.4,0.2-21.5c0.4-5.8-1.1-7.8-7.3-7.7c-24.7,0.4-49.3,0.4-74,0c-7-0.1-8.7,2.2-8.2,8.6c0.5,6.7,0.1,13.4,0.1,20.1
			c0,4.7-1.7,8.4-6.8,8.3c-5.1-0.1-6.4-3.8-6.4-8.5c0.1-24.2,0.1-48.4,0-72.6c0-4.8,1.5-8.3,6.6-8.3s6.7,3.7,6.6,8.4
			c-0.1,8.1,0.2,16.3-0.1,24.4c-0.2,4.9,1.2,6.7,6.4,6.6C1058.1-38.6,1071-38.3,1084-38.3z"/>
		<path class="st5" d="M836.9,12c-15.8,0-31.6,0-47.4,0c-8.3,0-10.1-1.9-10.2-10.1c0-12,0.1-24-0.1-35.9c-0.1-5.8,2.6-8.4,8.2-8.4
			c29.7,0,59.4,0,89.1,0c4.6,0,8.5,1.6,8.3,6.7c-0.2,5-4.2,6.5-8.7,6.5c-25.4,0-50.8,0.2-76.2-0.1c-5.9-0.1-8.1,1.4-7.5,7.5
			c0.5,4.7,0.4,9.6,0,14.4c-0.4,5.2,1.7,6.5,6.7,6.5C827.8-1.1,856.6-1,885.3-1c3.5,0,7.4-0.6,9.3,3.7c2.1,4.8-1.7,9.3-8.2,9.4
			C869.9,12.1,853.4,12,836.9,12z"/>
		<path class="st5" d="M1195.9-26.3c8.1,0,16.3-0.2,24.4,0.1c5.2,0.1,5.2-1.6,2.6-5.3c-7.1-10.2-14-20.6-20.9-30.8
			c-1.1-1.6-2.4-3.1-3-4.9c-1.4-3.6-1.6-7.1,2.2-9.5c4-2.6,7-0.6,9.2,2.5c5.5,7.8,10.7,15.8,16,23.8c11.2,16.7,22.4,33.3,33.6,50
			c2.9,4.3,5.1,8.8-0.6,12.3c-5.3,3.3-8.3-0.6-10.9-4.7c-0.5-0.8-1.3-1.5-1.6-2.3c-6-15.2-16.9-20.1-33-18.1
			c-11.8,1.5-23.9,0.4-35.9,0.2c-3.2,0-5.2,0.8-6.9,3.7c-3.7,6.2-7.8,12-11.7,18.1c-2.4,3.8-5.7,5.6-9.6,3.4
			c-4.5-2.6-4.1-6.4-1.4-10.4c5.3-8,10.4-16,15.3-24.3c1.8-3,4.1-3.6,7.1-3.6C1179.2-26.3,1187.6-26.3,1195.9-26.3z"/>
		<path class="st5" d="M1465.9-26.3c8.1,0,16.3,0,24.4,0c1.4,0,3.3,0.1,3.9-0.7c1.4-1.7-0.6-3-1.5-4.3c-7.5-11.1-15-22.2-22.6-33.2
			c-2-2.9-3.4-5.9-1.9-9.4c1-2.3,3.1-3.8,5.6-3.9c3.5-0.1,5.4,2.4,7.2,5.1c12.8,19.1,25.6,38.1,38.4,57.2
			c3.6,5.4,7.3,10.7,10.8,16.1c2.6,4,3.5,8.2-1.3,11.2c-4.4,2.8-7.7,0.3-10.2-3.5c-2.3-3.4-5.1-6.5-6.6-10.2
			c-3.9-9.8-10.9-12.1-20.9-11.4c-13.8,0.9-27.8,0.5-41.7,0.1c-5-0.1-7.9,1.5-10.3,5.7c-3.1,5.4-6.7,10.5-10,15.8
			c-2.5,3.9-5.8,6.3-10.2,3.7c-4.5-2.7-3.8-6.5-1.2-10.5c5.1-7.8,10.2-15.7,15-23.7c1.9-3.1,4.2-4.1,7.6-4.1
			C1449.1-26.2,1457.5-26.3,1465.9-26.3z"/>
		<path class="st5" d="M715.6-77.8c15.3,0,30.6,0,46,0c5.2,0,12-1,12.1,6.4c0.1,7.9-7,6.8-12.5,6.8c-11,0-22,0.2-33-0.1
			c-5-0.2-6.6,1.3-6.5,6.4c0.3,19.4,0.1,38.8,0.1,58.2c0,1.7,0.1,3.4,0,5c-0.2,4.2-2.3,7-6.6,6.9c-4.2-0.1-6.3-3-6.4-7.2
			c-0.1-4.5-0.1-9.1-0.1-13.6c0-16.3-0.2-32.6,0.1-48.8c0.1-5.4-1.7-7-7-6.9c-11.7,0.4-23.5,0.1-35.2,0.1c-4.7,0-9.3-0.9-9.4-6.4
			c-0.1-5.9,4.5-6.9,9.6-6.9C683-77.8,699.3-77.8,715.6-77.8z"/>
		<path class="st5" d="M949.5-35.2c21.4,11.9,41.7,23.1,62,34.3c3.5,1.9,8.4,3.3,5.6,8.8c-2.9,5.5-7.1,3.9-11.6,1.5
			c-24.3-12.9-48.6-25.7-72.9-38.5c-2.8-1.5-5.8-2.8-5.7-6.6c0.1-3.3,2.3-4.9,5.1-6.2c25-11.3,50.1-22.7,75.1-34.1
			c3.7-1.7,7.3-3.3,9.7,1.7c2.5,5.3-0.7,7.8-5.1,9.9c-17.7,8-35.2,16.3-52.7,24.5C956.2-38.5,953.4-37.1,949.5-35.2z"/>
		<path class="st6" d="M837.5-77.8c16,0,32.1,0.1,48.1-0.1c4.8,0,9.2,0.8,9.3,6.3c0.1,5.9-4.4,7-9.5,7c-32.1-0.1-64.2-0.1-96.2,0
			c-5,0-9.8-0.7-9.7-6.7s5-6.6,9.9-6.5C805.4-77.8,821.5-77.8,837.5-77.8z"/>
		<path class="st7" d="M914.8-33.4c0,12-0.1,23.9,0,35.9c0,4.8-1.1,9.1-6.6,9.2c-5.6,0.1-6.7-4.2-6.7-9c0-23.9,0.1-47.8,0-71.7
			c0-5.1,1.8-8.7,7.1-8.8c5.5-0.1,6.2,4.2,6.2,8.6C914.8-57.3,914.8-45.3,914.8-33.4z"/>
		<path class="st7" d="M1397.8-32.6c0-11.9,0.1-23.9,0-35.8c-0.1-4.9,1.1-9,6.6-9.2c5.8-0.2,6.8,4.3,6.8,8.9c0,24.1,0,48.3,0,72.4
			c0,4.7-1.6,8.3-6.8,8c-4.9-0.3-6.6-3.7-6.6-8.5C1398-8.7,1397.8-20.7,1397.8-32.6z"/>
		<path class="st8" d="M1644.6-75.1c-2.3,8.9-1,18-1.1,27c-0.2,11.7,0,23.4-0.1,35.1c0,1.8,0.6,4.1-2.1,4.6c-1.4,0.3-2-0.9-2.2-2.2
			c4.9,0.2,2.8-3.6,2.9-5.6c0.2-16.9,0.1-33.8,0.1-50.7C1642.1-69.7,1641-73.2,1644.6-75.1z"/>
	</g>
</g>
</svg>
