<?xml version="1.0" encoding="utf-8"?>
<!-- Generator: Adobe Illustrator 22.1.0, SVG Export Plug-In . SVG Version: 6.00 Build 0)  -->
<svg version="1.1" id="Layer_1" xmlns="http://www.w3.org/2000/svg" xmlns:xlink="http://www.w3.org/1999/xlink" x="0px" y="0px"
	 viewBox="0 0 996 142" style="enable-background:new 0 0 996 142;" xml:space="preserve">
<style type="text/css">
	.st0{fill:#000011;}
	.st1{fill:#000111;}
	.st2{fill:#3AB7E8;}
	.st3{fill:#EDA60A;}
	.st4{display:none;}
	.st5{display:inline;}
	.st6{fill:#010101;}
	.st7{fill:#020202;}
	.st8{fill:#050505;}
	.st9{fill:#4E4E4E;}
</style>
<g id="Layer_1_1_">
	<g id="Layer_2_1_">
	</g>
	<g>
		<path class="st0" d="M693.5,52.6c-11.9,12.4-24,24.6-35.6,37.2c-4.6,4.9-7.5,5.4-12.5,0.2c-12-12.3-24.7-23.9-37.1-35.7
			c-2.8,1.9-1.7,4.3-1.8,6.2c-0.1,16.5-0.1,33.1,0,49.6c0,5.1-1.1,9.7-7.1,9.5c-5.7-0.1-6.2-4.8-6.2-9.5c0.1-24,0-48,0-71.9
			c0-3.3-0.6-6.9,3.6-8.5c3.9-1.5,6.2,1,8.7,3.4C619,46.4,632.7,59.5,646,72.9c3.7,3.7,6,4.6,10.2,0.2c13-13.8,26.4-27.1,39.6-40.7
			c2.4-2.5,4.7-5.1,8.5-3.8c4.1,1.4,4.6,5,4.6,8.8c0,24.5,0,48.9,0,73.4c0,4.9-1.3,9-6.9,8.9c-5.1-0.2-6.3-4.2-6.3-8.8
			c0.1-18.9,0-37.9,0-56.8C695,53.7,694.2,53.2,693.5,52.6z"/>
		<path class="st1" d="M967.5,33c6.2-4.2,10.9-2.4,11,4.8c0.3,24.9,0.3,49.9,0,74.8c-0.1,7.9-4.4,9.4-11.7,4.1
			c-27.9-20.3-55.6-40.8-83.4-61.2c-2-1.4-3.8-4.8-6.5-3.1c-2,1.2-0.8,4.4-0.8,6.7c-0.1,17.3-0.1,34.5,0,51.8c0,4.8-0.8,9.1-6.6,9.1
			c-5.5,0-6.8-4-6.7-9c0.1-24.2,0.1-48.4,0-72.6c0-2.9-0.2-6.1,2.7-7.7c3.3-1.9,5.9,0.4,8.4,2.3c29.3,21.5,58.7,43,88,64.5
			c5.3,2,3.3-2.5,3.3-4.2c0.2-15.2,0-30.5,0.2-45.8C965.6,42.6,964.1,37.4,967.5,33z"/>
		<path class="st0" d="M407,69.7c12.9,0,25.9-0.2,38.8,0.1c4.5,0.1,5.7-1.3,5.5-5.7c-0.3-8.6,0-17.2-0.1-25.9
			c-0.1-4.9,1.8-7.8,7-7.9c5.4-0.1,6.2,3.7,6.2,7.8c0.1,24.7,0,49.3,0,74c0,4.5-2,7.9-6.6,7.7c-4.2-0.2-6.7-3-6.6-7.8
			c0.2-7.2-0.3-14.4,0.2-21.5c0.4-5.8-1.1-7.8-7.3-7.7c-24.7,0.4-49.3,0.4-74,0c-7-0.1-8.7,2.2-8.2,8.6c0.5,6.7,0.1,13.4,0.1,20.1
			c0,4.7-1.7,8.4-6.8,8.3c-5.1-0.1-6.4-3.8-6.4-8.5c0.1-24.2,0.1-48.4,0-72.6c0-4.8,1.5-8.3,6.6-8.3s6.7,3.7,6.6,8.4
			c-0.1,8.1,0.2,16.3-0.1,24.4c-0.2,4.9,1.2,6.7,6.4,6.6C381.1,69.5,394,69.7,407,69.7z"/>
		<path class="st2" d="M191.7,121.5c-15.8,0-31.6,0-47.4,0c-8.3,0-10.1-1.9-10.2-10.1c0-12,0.1-24-0.1-35.9
			c-0.1-5.8,2.6-8.4,8.2-8.4c29.7,0,59.4,0,89.1,0c4.6,0,8.5,1.6,8.3,6.7c-0.2,5-4.2,6.5-8.7,6.5c-25.4,0-50.8,0.2-76.2-0.1
			c-5.9-0.1-8.1,1.4-7.5,7.5c0.5,4.7,0.4,9.6,0,14.4c-0.4,5.2,1.7,6.5,6.7,6.5c28.7-0.2,57.5-0.1,86.2-0.1c3.5,0,7.4-0.6,9.3,3.7
			c2.1,4.8-1.7,9.3-8.2,9.4C224.8,121.6,208.3,121.5,191.7,121.5z"/>
		<path class="st0" d="M518.9,81.7c8.1,0,16.3-0.2,24.4,0.1c5.2,0.1,5.2-1.6,2.6-5.3C538.9,66.3,532,56,525,45.7
			c-1.1-1.6-2.4-3.1-3-4.9c-1.4-3.6-1.6-7.1,2.2-9.5c4-2.6,7-0.6,9.2,2.5c5.5,7.8,10.7,15.8,16,23.8c11.2,16.7,22.4,33.3,33.6,50
			c2.9,4.3,5.1,8.8-0.6,12.3c-5.3,3.3-8.3-0.6-10.9-4.7c-0.5-0.8-1.3-1.5-1.6-2.3c-6-15.2-16.9-20.1-33-18.1
			C525.1,96.1,513,95,501,94.9c-3.2,0-5.2,0.8-6.9,3.7c-3.7,6.2-7.8,12-11.7,18.1c-2.4,3.8-5.7,5.6-9.6,3.4
			c-4.5-2.6-4.1-6.4-1.4-10.4c5.3-8,10.4-16,15.3-24.3c1.8-3,4.1-3.6,7.1-3.6C502.2,81.8,510.5,81.7,518.9,81.7z"/>
		<path class="st1" d="M788.9,81.7c8.1,0,16.3,0,24.4,0c1.4,0,3.3,0.1,3.9-0.7c1.4-1.7-0.6-3-1.5-4.3c-7.5-11.1-15-22.2-22.6-33.2
			c-2-2.9-3.4-5.9-1.9-9.4c1-2.3,3.1-3.8,5.6-3.9c3.5-0.1,5.4,2.4,7.2,5.1c12.8,19.1,25.6,38.1,38.4,57.2
			c3.6,5.4,7.3,10.7,10.8,16.1c2.6,4,3.5,8.2-1.3,11.2c-4.4,2.8-7.7,0.3-10.2-3.5c-2.3-3.4-5.1-6.5-6.6-10.2
			c-3.9-9.8-10.9-12.1-20.9-11.4c-13.8,0.9-27.8,0.5-41.7,0.1c-5-0.1-7.9,1.5-10.3,5.7c-3.1,5.4-6.7,10.5-10,15.8
			c-2.5,3.9-5.8,6.3-10.2,3.7c-4.5-2.7-3.8-6.5-1.2-10.5c5.1-7.8,10.2-15.7,15-23.7c1.9-3.1,4.2-4.1,7.6-4.1
			C772.1,81.8,780.5,81.7,788.9,81.7z"/>
		<path class="st1" d="M70.5,31.6c15.3,0,30.6,0,46,0c5.2,0,12-1,12.1,6.4c0.1,7.9-7,6.8-12.5,6.8c-11,0-22,0.2-33-0.1
			c-5-0.2-6.6,1.3-6.5,6.4c0.3,19.4,0.1,38.8,0.1,58.2c0,1.7,0.1,3.4,0,5c-0.2,4.2-2.3,7-6.6,6.9c-4.2-0.1-6.3-3-6.4-7.2
			c-0.1-4.5-0.1-9.1-0.1-13.6c0-16.3-0.2-32.6,0.1-48.8c0.1-5.4-1.7-7-7-6.9c-11.7,0.4-23.5,0.1-35.2,0.1c-4.7,0-9.3-0.9-9.4-6.4
			c-0.1-5.9,4.5-6.9,9.6-6.9C37.9,31.7,54.2,31.6,70.5,31.6z"/>
		<path class="st1" d="M272.5,74.7c21.4,11.9,41.7,23.1,62,34.3c3.5,1.9,8.4,3.3,5.6,8.8c-2.9,5.5-7.1,3.9-11.6,1.5
			c-24.3-12.9-48.6-25.7-72.9-38.5c-2.8-1.5-5.8-2.8-5.7-6.6c0.1-3.3,2.3-4.9,5.1-6.2c25-11.3,50.1-22.7,75.1-34.1
			c3.7-1.7,7.3-3.3,9.7,1.7c2.5,5.3-0.7,7.8-5.1,9.9C317,53.5,299.5,61.7,282,70C279.2,71.3,276.5,72.8,272.5,74.7z"/>
		<path class="st3" d="M192.4,31.6c16,0,32.1,0.1,48.1-0.1c4.8,0,9.2,0.8,9.3,6.3c0.1,5.9-4.4,7-9.5,7c-32.1-0.1-64.2-0.1-96.2,0
			c-5,0-9.8-0.7-9.7-6.7s5-6.6,9.9-6.5C160.3,31.7,176.4,31.6,192.4,31.6z"/>
		<path class="st1" d="M720.8,75.4c0-11.9,0.1-23.9,0-35.8c-0.1-4.9,1.1-9,6.6-9.2c5.8-0.2,6.8,4.3,6.8,8.9c0,24.1,0,48.3,0,72.4
			c0,4.7-1.6,8.3-6.8,8c-4.9-0.3-6.6-3.7-6.6-8.5C720.9,99.3,720.8,87.4,720.8,75.4z"/>
		<path class="st1" d="M967.5,33c-2.3,8.9-1,18-1.1,27c-0.2,11.7,0,23.4-0.1,35.1c0,1.8,0.6,4.1-2.1,4.6c-1.4,0.3-2-0.9-2.2-2.2
			c4.9,0.2,2.8-3.6,2.9-5.6c0.2-16.9,0.1-33.8,0.1-50.7C965,38.3,963.9,34.8,967.5,33z"/>
	</g>
</g>
<g id="Layer_3" class="st4">
	<g class="st5">
		<path d="M958.5-95.4c-11.9,12.4-24,24.6-35.6,37.2c-4.6,4.9-7.5,5.4-12.5,0.2c-12-12.3-24.7-23.9-37.1-35.7
			c-2.8,1.9-1.7,4.3-1.8,6.2c-0.1,16.5-0.1,33.1,0,49.6c0,5.1-1.1,9.7-7.1,9.5c-5.7-0.1-6.2-4.8-6.2-9.5c0.1-24,0-48,0-71.9
			c0-3.3-0.6-6.9,3.6-8.5c3.9-1.5,6.2,1,8.7,3.4c13.5,13.3,27.2,26.4,40.5,39.8c3.7,3.7,6,4.6,10.2,0.2c13-13.8,26.4-27.1,39.6-40.7
			c2.4-2.5,4.7-5.1,8.5-3.8c4.1,1.4,4.6,5,4.6,8.8c0,24.5,0,48.9,0,73.4c0,4.9-1.3,9-6.9,8.9c-5.1-0.2-6.3-4.2-6.3-8.8
			c0.1-18.9,0-37.9,0-56.8C960-94.3,959.3-94.9,958.5-95.4z"/>
		<path class="st6" d="M1232.6-115.1c6.2-4.2,10.9-2.4,11,4.8c0.3,24.9,0.3,49.9,0,74.8c-0.1,7.9-4.4,9.4-11.7,4.1
			c-27.9-20.3-55.6-40.8-83.4-61.2c-2-1.4-3.8-4.8-6.5-3.1c-2,1.2-0.8,4.4-0.8,6.7c-0.1,17.3-0.1,34.5,0,51.8c0,4.8-0.8,9.1-6.6,9.1
			c-5.5,0-6.8-4-6.7-9c0.1-24.2,0.1-48.4,0-72.6c0-2.9-0.2-6.1,2.7-7.7c3.3-1.9,5.9,0.4,8.4,2.3c29.3,21.5,58.7,43,88,64.5
			c5.3,2,3.3-2.5,3.3-4.2c0.2-15.2,0-30.5,0.2-45.8C1230.6-105.4,1229.1-110.6,1232.6-115.1z"/>
		<path class="st6" d="M672-78.3c12.9,0,25.9-0.2,38.8,0.1c4.5,0.1,5.7-1.3,5.5-5.7c-0.3-8.6,0-17.2-0.1-25.9
			c-0.1-4.9,1.8-7.8,7-7.9c5.4-0.1,6.2,3.7,6.2,7.8c0.1,24.7,0,49.3,0,74c0,4.5-2,7.9-6.6,7.7c-4.2-0.2-6.7-3-6.6-7.8
			c0.2-7.2-0.3-14.4,0.2-21.5c0.4-5.8-1.1-7.8-7.3-7.7c-24.7,0.4-49.3,0.4-74,0c-7-0.1-8.7,2.2-8.2,8.6c0.5,6.7,0.1,13.4,0.1,20.1
			c0,4.7-1.7,8.4-6.8,8.3s-6.4-3.8-6.4-8.5c0.1-24.2,0.1-48.4,0-72.6c0-4.8,1.5-8.3,6.6-8.3s6.7,3.7,6.6,8.4
			c-0.1,8.1,0.2,16.3-0.1,24.4c-0.2,4.9,1.2,6.7,6.4,6.6C646.1-78.6,659-78.3,672-78.3z"/>
		<path class="st6" d="M424.9-28c-15.8,0-31.6,0-47.4,0c-8.3,0-10.1-1.9-10.2-10.1c0-12,0.1-24-0.1-35.9c-0.1-5.8,2.6-8.4,8.2-8.4
			c29.7,0,59.4,0,89.1,0c4.6,0,8.5,1.6,8.3,6.7c-0.2,5-4.2,6.5-8.7,6.5c-25.4,0-50.8,0.2-76.2-0.1c-5.9-0.1-8.1,1.4-7.5,7.5
			c0.5,4.7,0.4,9.6,0,14.4c-0.4,5.2,1.7,6.5,6.7,6.5c28.7-0.2,57.5-0.1,86.2-0.1c3.5,0,7.4-0.6,9.3,3.7c2.1,4.8-1.7,9.3-8.2,9.4
			C457.9-27.9,441.4-28,424.9-28z"/>
		<path class="st6" d="M783.9-66.3c8.1,0,16.3-0.2,24.4,0.1c5.2,0.1,5.2-1.6,2.6-5.3c-7.1-10.2-14-20.6-20.9-30.8
			c-1.1-1.6-2.4-3.1-3-4.9c-1.4-3.6-1.6-7.1,2.2-9.5c4-2.6,7-0.6,9.2,2.5c5.5,7.8,10.7,15.8,16,23.8c11.2,16.7,22.4,33.3,33.6,50
			c2.9,4.3,5.1,8.8-0.6,12.3c-5.3,3.3-8.3-0.6-10.9-4.7c-0.5-0.8-1.3-1.5-1.6-2.3c-6-15.2-16.9-20.1-33-18.1
			C790.1-51.7,778-52.8,766-53c-3.2,0-5.2,0.8-6.9,3.7c-3.7,6.2-7.8,12-11.7,18.1c-2.4,3.8-5.7,5.6-9.6,3.4
			c-4.5-2.6-4.1-6.4-1.4-10.4c5.3-8,10.4-16,15.3-24.3c1.8-3,4.1-3.6,7.1-3.6C767.2-66.3,775.6-66.3,783.9-66.3z"/>
		<path class="st6" d="M1053.9-66.3c8.1,0,16.3,0,24.4,0c1.4,0,3.3,0.1,3.9-0.7c1.4-1.7-0.6-3-1.5-4.3c-7.5-11.1-15-22.2-22.6-33.2
			c-2-2.9-3.4-5.9-1.9-9.4c1-2.3,3.1-3.8,5.6-3.9c3.5-0.1,5.4,2.4,7.2,5.1c12.8,19.1,25.6,38.1,38.4,57.2
			c3.6,5.4,7.3,10.7,10.8,16.1c2.6,4,3.5,8.2-1.3,11.2c-4.4,2.8-7.7,0.3-10.2-3.5c-2.3-3.4-5.1-6.5-6.6-10.2
			c-3.9-9.8-10.9-12.1-20.9-11.4c-13.8,0.9-27.8,0.5-41.7,0.1c-5-0.1-7.9,1.5-10.3,5.7c-3.1,5.4-6.7,10.5-10,15.8
			c-2.5,3.9-5.8,6.3-10.2,3.7c-4.5-2.7-3.8-6.5-1.2-10.5c5.1-7.8,10.2-15.7,15-23.7c1.9-3.1,4.2-4.1,7.6-4.1
			C1037.1-66.2,1045.5-66.3,1053.9-66.3z"/>
		<path class="st6" d="M303.6-117.8c15.3,0,30.6,0,46,0c5.2,0,12-1,12.1,6.4c0.1,7.9-7,6.8-12.5,6.8c-11,0-22,0.2-33-0.1
			c-5-0.2-6.6,1.3-6.5,6.4c0.3,19.4,0.1,38.8,0.1,58.2c0,1.7,0.1,3.4,0,5c-0.2,4.2-2.3,7-6.6,6.9c-4.2-0.1-6.3-3-6.4-7.2
			c-0.1-4.5-0.1-9.1-0.1-13.6c0-16.3-0.2-32.6,0.1-48.8c0.1-5.4-1.7-7-7-6.9c-11.7,0.4-23.5,0.1-35.2,0.1c-4.7,0-9.3-0.9-9.4-6.4
			c-0.1-5.9,4.5-6.9,9.6-6.9C271-117.8,287.3-117.8,303.6-117.8z"/>
		<path class="st6" d="M537.5-75.2c21.4,11.9,41.7,23.1,62,34.3c3.5,1.9,8.4,3.3,5.6,8.8c-2.9,5.5-7.1,3.9-11.6,1.5
			c-24.3-12.9-48.6-25.7-72.9-38.5c-2.8-1.5-5.8-2.8-5.7-6.6c0.1-3.3,2.3-4.9,5.1-6.2c25-11.3,50.1-22.7,75.1-34.1
			c3.7-1.7,7.3-3.3,9.7,1.7c2.5,5.3-0.7,7.8-5.1,9.9c-17.7,8-35.2,16.3-52.7,24.5C544.2-78.5,541.4-77.1,537.5-75.2z"/>
		<path class="st7" d="M425.5-117.8c16,0,32.1,0.1,48.1-0.1c4.8,0,9.2,0.8,9.3,6.3c0.1,5.9-4.4,7-9.5,7c-32.1-0.1-64.2-0.1-96.2,0
			c-5,0-9.8-0.7-9.7-6.7c0.1-6,5-6.6,9.9-6.5C393.4-117.8,409.5-117.8,425.5-117.8z"/>
		<path class="st8" d="M502.8-73.4c0,12-0.1,23.9,0,35.9c0,4.8-1.1,9.1-6.6,9.2c-5.6,0.1-6.7-4.2-6.7-9c0-23.9,0.1-47.8,0-71.7
			c0-5.1,1.8-8.7,7.1-8.8c5.5-0.1,6.2,4.2,6.2,8.6C502.8-97.3,502.8-85.3,502.8-73.4z"/>
		<path class="st8" d="M985.8-72.6c0-11.9,0.1-23.9,0-35.8c-0.1-4.9,1.1-9,6.6-9.2c5.8-0.2,6.8,4.3,6.8,8.9c0,24.1,0,48.3,0,72.4
			c0,4.7-1.6,8.3-6.8,8c-4.9-0.3-6.6-3.7-6.6-8.5C986-48.7,985.8-60.7,985.8-72.6z"/>
		<path class="st9" d="M1232.6-115.1c-2.3,8.9-1,18-1.1,27c-0.2,11.7,0,23.4-0.1,35.1c0,1.8,0.6,4.1-2.1,4.6c-1.4,0.3-2-0.9-2.2-2.2
			c4.9,0.2,2.8-3.6,2.9-5.6c0.2-16.9,0.1-33.8,0.1-50.7C1230.1-109.7,1229-113.2,1232.6-115.1z"/>
	</g>
</g>
</svg>
